<svg xmlns="http://www.w3.org/2000/svg" viewBox="0 0 900 600" role="img" aria-labelledby="en-t en-d" font-family="var(--serif)">
<title id="en-t">55 Äbtissinnen und das Ende auf Raten, 1280–1596</title>
<desc id="en-d">Oben die Amtsantritte der 55 Äbtissinnen von St. Klara nach Koppius 1628, von 1280 bis 1563. Unten die Zahl der Schwestern: 52 im Jahr 1527, drei Klarissen um 1586, die letzte Klarisse 1591, die letzte Bewohnerin 1596.</desc>
<text x="16" y="30" font-size="17" font-weight="bold" fill="var(--ink)">Dreihundert Jahre, und das Ende auf Raten</text>
<text x="16" y="50" font-size="13" fill="var(--ink2)">Oben: Amtsantritt jeder Äbtissin nach Koppius 1628. Unten: wie viele Schwestern es noch gab.</text>
<line x1="40.0" y1="170" x2="847.7611940298508" y2="170" stroke="var(--ink2)"/>
<line x1="113" y1="170" x2="113" y2="176" stroke="var(--ink2)"/><text x="113" y="192" text-anchor="middle" font-size="12" fill="var(--ink2)">1300</text>
<line x1="236" y1="170" x2="236" y2="176" stroke="var(--ink2)"/><text x="236" y="192" text-anchor="middle" font-size="12" fill="var(--ink2)">1350</text>
<line x1="358" y1="170" x2="358" y2="176" stroke="var(--ink2)"/><text x="358" y="192" text-anchor="middle" font-size="12" fill="var(--ink2)">1400</text>
<line x1="481" y1="170" x2="481" y2="176" stroke="var(--ink2)"/><text x="481" y="192" text-anchor="middle" font-size="12" fill="var(--ink2)">1450</text>
<line x1="603" y1="170" x2="603" y2="176" stroke="var(--ink2)"/><text x="603" y="192" text-anchor="middle" font-size="12" fill="var(--ink2)">1500</text>
<line x1="725" y1="170" x2="725" y2="176" stroke="var(--ink2)"/><text x="725" y="192" text-anchor="middle" font-size="12" fill="var(--ink2)">1550</text>
<line x1="848" y1="170" x2="848" y2="176" stroke="var(--ink2)"/><text x="848" y="192" text-anchor="middle" font-size="12" fill="var(--ink2)">1600</text>
<a href="#/text/ende/koppius/1"><line x1="64.5" y1="170" x2="64.5" y2="144" stroke="var(--nachwelt)" stroke-width="1.6"/></a>
<a href="#/text/ende/koppius/1"><line x1="69.4" y1="170" x2="69.4" y2="144" stroke="var(--nachwelt)" stroke-width="1.6"/></a>
<a href="#/text/ende/koppius/1"><line x1="98.7" y1="170" x2="98.7" y2="144" stroke="var(--nachwelt)" stroke-width="1.6"/></a>
<a href="#/text/ende/koppius/1"><line x1="101.2" y1="170" x2="101.2" y2="144" stroke="var(--nachwelt)" stroke-width="1.6"/></a>
<a href="#/text/ende/koppius/1"><line x1="106.1" y1="170" x2="106.1" y2="144" stroke="var(--nachwelt)" stroke-width="1.6"/></a>
<a href="#/text/ende/koppius/1"><line x1="111.0" y1="170" x2="111.0" y2="144" stroke="var(--nachwelt)" stroke-width="1.6"/></a>
<a href="#/text/ende/koppius/1"><line x1="113.4" y1="170" x2="113.4" y2="144" stroke="var(--nachwelt)" stroke-width="1.6"/></a>
<a href="#/text/ende/koppius/1"><line x1="120.8" y1="170" x2="120.8" y2="144" stroke="var(--nachwelt)" stroke-width="1.6"/></a>
<a href="#/text/ende/koppius/1"><line x1="125.7" y1="170" x2="125.7" y2="144" stroke="var(--nachwelt)" stroke-width="1.6"/></a>
<a href="#/text/ende/koppius/1"><line x1="130.6" y1="170" x2="130.6" y2="144" stroke="var(--nachwelt)" stroke-width="1.6"/></a>
<a href="#/text/ende/koppius/1"><line x1="140.4" y1="170" x2="140.4" y2="144" stroke="var(--nachwelt)" stroke-width="1.6"/></a>
<a href="#/text/ende/koppius/1"><line x1="155.0" y1="170" x2="155.0" y2="144" stroke="var(--nachwelt)" stroke-width="1.6"/></a>
<a href="#/text/ende/koppius/1"><line x1="169.7" y1="170" x2="169.7" y2="144" stroke="var(--nachwelt)" stroke-width="1.6"/></a>
<a href="#/text/ende/koppius/1"><line x1="172.2" y1="170" x2="172.2" y2="144" stroke="var(--nachwelt)" stroke-width="1.6"/></a>
<a href="#/text/ende/koppius/1"><line x1="179.5" y1="170" x2="179.5" y2="144" stroke="var(--nachwelt)" stroke-width="1.6"/></a>
<a href="#/text/ende/koppius/1"><line x1="191.8" y1="170" x2="191.8" y2="144" stroke="var(--nachwelt)" stroke-width="1.6"/></a>
<a href="#/text/ende/koppius/1"><line x1="194.2" y1="170" x2="194.2" y2="144" stroke="var(--nachwelt)" stroke-width="1.6"/></a>
<a href="#/text/ende/koppius/1"><line x1="199.1" y1="170" x2="199.1" y2="144" stroke="var(--nachwelt)" stroke-width="1.6"/></a>
<a href="#/text/ende/koppius/1"><line x1="204.0" y1="170" x2="204.0" y2="144" stroke="var(--nachwelt)" stroke-width="1.6"/></a>
<a href="#/text/ende/koppius/1"><line x1="208.9" y1="170" x2="208.9" y2="144" stroke="var(--nachwelt)" stroke-width="1.6"/></a>
<a href="#/text/ende/koppius/1"><line x1="213.8" y1="170" x2="213.8" y2="144" stroke="var(--nachwelt)" stroke-width="1.6"/></a>
<a href="#/text/ende/koppius/1"><line x1="221.1" y1="170" x2="221.1" y2="144" stroke="var(--nachwelt)" stroke-width="1.6"/></a>
<a href="#/text/ende/koppius/1"><line x1="233.4" y1="170" x2="233.4" y2="144" stroke="var(--nachwelt)" stroke-width="1.6"/></a>
<a href="#/text/ende/koppius/1"><line x1="235.8" y1="170" x2="235.8" y2="144" stroke="var(--nachwelt)" stroke-width="1.6"/></a>
<a href="#/text/ende/koppius/1"><line x1="248.1" y1="170" x2="248.1" y2="144" stroke="var(--nachwelt)" stroke-width="1.6"/></a>
<a href="#/text/ende/koppius/1"><line x1="265.2" y1="170" x2="265.2" y2="144" stroke="var(--nachwelt)" stroke-width="1.6"/></a>
<a href="#/text/ende/koppius/1"><line x1="267.6" y1="170" x2="267.6" y2="144" stroke="var(--nachwelt)" stroke-width="1.6"/></a>
<a href="#/text/ende/koppius/1"><line x1="272.5" y1="170" x2="272.5" y2="144" stroke="var(--nachwelt)" stroke-width="1.6"/></a>
<a href="#/text/ende/koppius/1"><line x1="277.4" y1="170" x2="277.4" y2="144" stroke="var(--nachwelt)" stroke-width="1.6"/></a>
<a href="#/text/ende/koppius/1"><line x1="284.8" y1="170" x2="284.8" y2="144" stroke="var(--nachwelt)" stroke-width="1.6"/></a>
<a href="#/text/ende/koppius/1"><line x1="292.1" y1="170" x2="292.1" y2="144" stroke="var(--nachwelt)" stroke-width="1.6"/></a>
<a href="#/text/ende/koppius/1"><line x1="309.3" y1="170" x2="309.3" y2="144" stroke="var(--nachwelt)" stroke-width="1.6"/></a>
<a href="#/text/ende/koppius/1"><line x1="314.1" y1="170" x2="314.1" y2="144" stroke="var(--nachwelt)" stroke-width="1.6"/></a>
<a href="#/text/ende/koppius/1"><line x1="331.3" y1="170" x2="331.3" y2="144" stroke="var(--nachwelt)" stroke-width="1.6"/></a>
<a href="#/text/ende/koppius/1"><line x1="341.1" y1="170" x2="341.1" y2="144" stroke="var(--nachwelt)" stroke-width="1.6"/></a>
<a href="#/text/ende/koppius/1"><line x1="346.0" y1="170" x2="346.0" y2="144" stroke="var(--nachwelt)" stroke-width="1.6"/></a>
<a href="#/text/ende/koppius/1"><line x1="360.7" y1="170" x2="360.7" y2="144" stroke="var(--nachwelt)" stroke-width="1.6"/></a>
<a href="#/text/ende/koppius/1"><line x1="365.6" y1="170" x2="365.6" y2="144" stroke="var(--nachwelt)" stroke-width="1.6"/></a>
<a href="#/text/ende/koppius/1"><line x1="372.9" y1="170" x2="372.9" y2="144" stroke="var(--nachwelt)" stroke-width="1.6"/></a>
<a href="#/text/ende/koppius/1"><line x1="387.6" y1="170" x2="387.6" y2="144" stroke="var(--nachwelt)" stroke-width="1.6"/></a>
<a href="#/text/ende/koppius/1"><line x1="402.3" y1="170" x2="402.3" y2="144" stroke="var(--nachwelt)" stroke-width="1.6"/></a>
<a href="#/text/ende/koppius/1"><line x1="407.2" y1="170" x2="407.2" y2="144" stroke="var(--nachwelt)" stroke-width="1.6"/></a>
<a href="#/text/ende/koppius/1"><line x1="431.6" y1="170" x2="431.6" y2="144" stroke="var(--nachwelt)" stroke-width="1.6"/></a>
<a href="#/text/ende/koppius/1"><line x1="453.7" y1="170" x2="453.7" y2="144" stroke="var(--nachwelt)" stroke-width="1.6"/></a>
<a href="#/text/ende/koppius/1"><line x1="461.0" y1="170" x2="461.0" y2="144" stroke="var(--nachwelt)" stroke-width="1.6"/></a>
<a href="#/text/ende/koppius/1"><line x1="480.6" y1="170" x2="480.6" y2="144" stroke="var(--nachwelt)" stroke-width="1.6"/></a>
<a href="#/text/ende/koppius/1"><line x1="505.1" y1="170" x2="505.1" y2="144" stroke="var(--nachwelt)" stroke-width="1.6"/></a>
<a href="#/text/ende/koppius/1"><line x1="512.4" y1="170" x2="512.4" y2="144" stroke="var(--nachwelt)" stroke-width="1.6"/></a>
<a href="#/text/ende/koppius/1"><line x1="519.8" y1="170" x2="519.8" y2="144" stroke="var(--nachwelt)" stroke-width="1.6"/></a>
<a href="#/text/ende/koppius/1"><line x1="529.6" y1="170" x2="529.6" y2="144" stroke="var(--nachwelt)" stroke-width="1.6"/></a>
<a href="#/text/ende/koppius/1"><line x1="573.6" y1="170" x2="573.6" y2="144" stroke="var(--nachwelt)" stroke-width="1.6"/></a>
<a href="#/text/ende/koppius/2"><line x1="610.3" y1="170" x2="610.3" y2="124" stroke="var(--konvent)" stroke-width="3"/></a>
<a href="#/text/ende/koppius/2"><line x1="681.3" y1="170" x2="681.3" y2="124" stroke="var(--konvent)" stroke-width="3"/></a>
<a href="#/text/ende/koppius/2"><line x1="683.8" y1="170" x2="683.8" y2="124" stroke="var(--konvent)" stroke-width="3"/></a>
<a href="#/text/ende/koppius/2"><line x1="757.2" y1="170" x2="757.2" y2="124" stroke="var(--konvent)" stroke-width="3"/></a>
<text x="64" y="136" font-size="12.5" fill="var(--ink2)">1. Kunigunde, 1280</text>
<a href="#/text/ende/koppius/2"><text x="606" y="118" text-anchor="end" font-size="13" font-weight="bold" fill="var(--konvent)" text-decoration="underline">52. Caritas 1503</text></a>
<a href="#/text/ende/koppius/2"><text x="751" y="96" text-anchor="end" font-size="13" font-weight="bold" fill="var(--konvent)" text-decoration="underline">55. Ursula Muffel 1563, ‚die letzte‘</text></a>
<a href="#/text/prediger/oculi/1"><line x1="664" y1="198" x2="664" y2="162" stroke="var(--rat)" stroke-dasharray="4 3"/><text x="664" y="214" text-anchor="middle" font-size="12.5" fill="var(--rat)">1525 Reformation</text></a>
<a href="#/text/ende/koppius/4"><line x1="838" y1="198" x2="838" y2="162" stroke="var(--rat)" stroke-dasharray="4 3"/><text x="838" y="214" text-anchor="middle" font-size="12.5" fill="var(--rat)">1596</text></a>
<text x="16" y="232" font-size="14" font-weight="bold" fill="var(--ink)">Die Schwestern nach 1525</text>
<line x1="60" y1="520" x2="840" y2="520" stroke="var(--ink2)"/>
<text x="60" y="538" text-anchor="middle" font-size="12" fill="var(--ink2)">1520</text>
<text x="158" y="538" text-anchor="middle" font-size="12" fill="var(--ink2)">1530</text>
<text x="255" y="538" text-anchor="middle" font-size="12" fill="var(--ink2)">1540</text>
<text x="352" y="538" text-anchor="middle" font-size="12" fill="var(--ink2)">1550</text>
<text x="450" y="538" text-anchor="middle" font-size="12" fill="var(--ink2)">1560</text>
<text x="548" y="538" text-anchor="middle" font-size="12" fill="var(--ink2)">1570</text>
<text x="645" y="538" text-anchor="middle" font-size="12" fill="var(--ink2)">1580</text>
<text x="742" y="538" text-anchor="middle" font-size="12" fill="var(--ink2)">1590</text>
<text x="840" y="538" text-anchor="middle" font-size="12" fill="var(--ink2)">1600</text>
<a href="#/text/ordnung/visitation/6"><rect x="119" y="250" width="18" height="270" fill="var(--konvent)"/></a>
<a href="#/text/ende/koppius/3"><rect x="694" y="504" width="18" height="16" fill="var(--konvent)"/></a>
<a href="#/text/ende/koppius/4"><rect x="743" y="515" width="18" height="5" fill="var(--konvent)"/></a>
<a href="#/text/ordnung/visitation/6"><text x="142" y="264" font-size="13" fill="var(--ink)" text-decoration="underline">52 Schwestern bei der Visitation 1527</text></a>
<a href="#/text/ende/koppius/3"><rect x="714" y="489" width="18" height="31" fill="var(--familien)"/></a>
<a href="#/text/ende/koppius/3"><text x="690" y="455" text-anchor="end" font-size="13" fill="var(--ink)" text-decoration="underline">um 1586: 3 Klarissen</text><text x="690" y="471" text-anchor="end" font-size="13" fill="var(--familien)" text-decoration="underline">und 6 Augustinerinnen aus Pillenreuth</text></a>
<a href="#/text/ende/koppius/4"><circle cx="801" cy="515" r="6" fill="var(--familien)"/></a>
<a href="#/text/ende/koppius/4"><text x="791" y="560" text-anchor="end" font-size="12.5" fill="var(--ink)" text-decoration="underline">1591 die letzte Klarisse, 1596 die letzte Bewohnerin</text></a>
<a href="#/text/ende/kaeterlein/3"><text x="245" y="484" text-anchor="middle" font-size="12.5" fill="var(--ink2)" text-decoration="underline">1539: ‚die stärkste ist gestorben‘</text><line x1="245" y1="490" x2="245" y2="520" stroke="var(--ink2)" stroke-dasharray="3 3"/></a>
<text x="16" y="592" font-size="12.5" fill="var(--ink2)">Zwischen 1527 und 1586 gibt es keine Zahl; die Säulen sind keine Kurve. Violett: Klarissen; grün: Augustinerinnen aus Pillenreuth.</text>
</svg>